<svg xmlns="http://www.w3.org/2000/svg" xmlns:svg="http://www.w3.org/2000/svg" xmlns:xlink="http://www.w3.org/1999/xlink" id="svg36" width="1687.809" height="1687.809" version="1.1" viewBox="28.097 17.542 446.566 446.566"><defs id="defs40"><linearGradient id="linearGradient1425"><stop style="stop-color:#fff;stop-opacity:1" id="stop1421" offset="0"/><stop style="stop-color:gray;stop-opacity:1" id="stop1423" offset="1"/></linearGradient><filter style="color-interpolation-filters:sRGB" id="filter1353" width="1.35" height="1.194" x="-.129" y="-.072"><feFlood id="feFlood1343" flood-color="#000" flood-opacity="1" result="flood"/><feComposite id="feComposite1345" in="flood" in2="SourceGraphic" operator="in" result="composite1"/><feGaussianBlur id="feGaussianBlur1347" in="composite1" result="blur" stdDeviation="12.324"/><feOffset id="feOffset1349" dx="21.11" dy="20.329" result="offset"/><feComposite id="feComposite1351" in="offset" in2="offset" operator="atop" result="composite2"/></filter><linearGradient id="linearGradient1427" x1="-78.922" x2="312.829" y1="-27.172" y2="358.912" gradientTransform="translate(133.17073,70.65781)" gradientUnits="userSpaceOnUse" xlink:href="#linearGradient1425"/><filter style="color-interpolation-filters:sRGB" id="filter2163" width="1.209" height="1.117" x="-.105" y="-.058"><feGaussianBlur id="feGaussianBlur2165" stdDeviation="9.994"/></filter></defs><metadata id="metadata2"/><rect style="opacity:1;fill:url(#linearGradient1427);fill-opacity:1;stroke:#000;stroke-width:4.688;stroke-miterlimit:4;stroke-dasharray:none" id="rect1096" width="441.878" height="441.878" x="30.441" y="19.885" ry="31.647"/><path id="rect990" style="fill:#000;fill-opacity:1;stroke:none;stroke-width:2.20755;stroke-linecap:round;stroke-linejoin:round;stroke-miterlimit:4;stroke-dasharray:none;stroke-opacity:1" d="m 354.24989,31.453011 a 8.9120111,8.4724555 0 0 0 -7.93602,4.807938 l -43.63394,86.537591 h -80.74825 a 8.9120111,8.4724555 0 0 0 -8.9121,8.4718 8.9120111,8.4724555 0 0 0 8.9121,8.47359 h 72.20394 l -12.07378,23.9442 H 232.6757 a 8.9120111,8.4724555 0 0 0 -8.91209,8.47179 8.9120111,8.4724555 0 0 0 8.91209,8.47357 h 40.84362 l -5.96971,11.83861 h -25.19792 a 8.9120111,8.4724555 0 0 0 -8.9121,8.47181 8.9120111,8.4724555 0 0 0 8.9121,8.47356 h 24.53305 l 15.8243,27.07405 h -0.009 l -15.84767,27.11475 h -24.5325 a 8.9120111,8.4724555 0 0 0 -8.91211,8.47355 8.9120111,8.4724555 0 0 0 8.91211,8.4718 h 25.19791 l 5.9697,11.83862 h -40.8436 a 8.9120111,8.4724555 0 0 0 -8.9121,8.47355 8.9120111,8.4724555 0 0 0 8.9121,8.47181 h 49.38614 l 12.07377,23.94421 h -72.20394 a 8.9120111,8.4724555 0 0 0 -8.9121,8.47357 8.9120111,8.4724555 0 0 0 8.9121,8.4718 h 80.74824 l 43.63395,86.53761 a 8.9120111,8.4724555 0 0 0 11.88812,3.97684 8.9120111,8.4724555 0 0 0 4.18373,-11.30282 l -45.37393,-89.98749 55.31517,-94.65221 61.19645,0.24402 a 8.9120111,8.4724555 0 0 0 8.94923,-8.43644 8.9120111,8.4724555 0 0 0 0,-0.0725 h 0.032 a 8.9120111,8.4724555 0 0 0 0,-0.1132 8.9120111,8.4724555 0 0 0 -8.94925,-8.43645 l -61.19645,0.24403 -55.31516,-94.65219 45.37393,-89.98751 a 8.9120111,8.4724555 0 0 0 -4.18374,-11.302811 8.9120111,8.4724555 0 0 0 -3.9521,-0.83109 z m -46.68244,120.850969 44.41727,76.00397 -24.19883,0.0973 -31.4523,-53.81921 z m 20.18661,92.31453 24.19885,0.0973 -44.41731,76.004 -11.23384,-22.28204 z"/><path id="rect990-3" style="fill:#000;fill-opacity:1;stroke:none;stroke-width:2.20755;stroke-linecap:round;stroke-linejoin:round;stroke-miterlimit:4;stroke-dasharray:none;stroke-opacity:1;opacity:.23;filter:url(#filter2163)" d="m 129.07324,50.403768 a 8.9120111,8.4724555 0 0 1 7.93602,4.807938 L 180.6432,141.7493 h 80.74825 a 8.9120111,8.4724555 0 0 1 8.9121,8.4718 8.9120111,8.4724555 0 0 1 -8.9121,8.47359 h -72.20394 l 12.07378,23.9442 h 49.38614 a 8.9120111,8.4724555 0 0 1 8.91209,8.47179 8.9120111,8.4724555 0 0 1 -8.91209,8.47357 h -40.84362 l 5.96971,11.83861 h 25.19792 a 8.9120111,8.4724555 0 0 1 8.9121,8.47181 8.9120111,8.4724555 0 0 1 -8.9121,8.47356 h -24.53305 l -15.8243,27.07405 h 0.009 l 15.84767,27.11475 h 24.5325 a 8.9120111,8.4724555 0 0 1 8.91211,8.47355 8.9120111,8.4724555 0 0 1 -8.91211,8.4718 h -25.19791 l -5.9697,11.83862 h 40.8436 a 8.9120111,8.4724555 0 0 1 8.9121,8.47355 8.9120111,8.4724555 0 0 1 -8.9121,8.47181 h -49.38614 l -12.07377,23.94421 h 72.20394 a 8.9120111,8.4724555 0 0 1 8.9121,8.47357 8.9120111,8.4724555 0 0 1 -8.9121,8.4718 h -80.74824 l -43.63395,86.53761 a 8.9120111,8.4724555 0 0 1 -11.88812,3.97684 8.9120111,8.4724555 0 0 1 -4.18373,-11.30282 l 45.37393,-89.98749 -55.31517,-94.65221 -61.19645,0.24402 a 8.9120111,8.4724555 0 0 1 -8.94923,-8.43644 8.9120111,8.4724555 0 0 1 0,-0.0725 h -0.032 a 8.9120111,8.4724555 0 0 1 0,-0.1132 8.9120111,8.4724555 0 0 1 8.94925,-8.43645 l 61.19645,0.24403 55.31516,-94.65219 -45.37393,-89.987513 a 8.9120111,8.4724555 0 0 1 4.18374,-11.302811 8.9120111,8.4724555 0 0 1 3.9521,-0.83109 z m 46.68244,120.850972 -44.41727,76.00397 24.19883,0.0973 31.4523,-53.81921 z m -20.18661,92.31453 -24.19885,0.0973 44.41731,76.004 11.23384,-22.28204 z"/></svg>